<mxfile host="65bd71144e">
    <diagram id="aLfWL2zd1AqLpelf50_K" name="Page-1">
        <mxGraphModel dx="2033" dy="2450" grid="1" gridSize="10" guides="1" tooltips="1" connect="1" arrows="1" fold="1" page="1" pageScale="1" pageWidth="850" pageHeight="1100" math="0" shadow="0">
            <root>
                <mxCell id="0"/>
                <mxCell id="1" parent="0"/>
                <mxCell id="13" value="" style="rounded=1;whiteSpace=wrap;html=1;fontSize=29;verticalAlign=top;arcSize=6;shadow=1;" vertex="1" parent="1">
                    <mxGeometry x="10" y="140" width="340.62" height="140" as="geometry"/>
                </mxCell>
                <mxCell id="14" style="edgeStyle=none;html=1;exitX=0.5;exitY=1;exitDx=0;exitDy=0;entryX=0.5;entryY=0;entryDx=0;entryDy=0;fontSize=30;endArrow=open;endFill=0;endSize=13;shadow=1;" edge="1" parent="1" source="15" target="16">
                    <mxGeometry relative="1" as="geometry"/>
                </mxCell>
                <mxCell id="15" value="" style="rounded=0;whiteSpace=wrap;html=1;fontSize=21;verticalAlign=bottom;fillColor=#1ba1e2;strokeColor=#006EAF;fontColor=#ffffff;shadow=1;" vertex="1" parent="1">
                    <mxGeometry x="58.75" y="160" width="30" height="30" as="geometry"/>
                </mxCell>
                <mxCell id="16" value="" style="rounded=0;whiteSpace=wrap;html=1;fontSize=21;verticalAlign=bottom;fillColor=#1ba1e2;strokeColor=#006EAF;fontColor=#ffffff;shadow=1;" vertex="1" parent="1">
                    <mxGeometry x="58.75" y="230" width="30" height="30" as="geometry"/>
                </mxCell>
                <mxCell id="20" style="edgeStyle=none;html=1;exitX=0.5;exitY=1;exitDx=0;exitDy=0;entryX=0.5;entryY=0;entryDx=0;entryDy=0;fontSize=30;endArrow=open;endFill=0;endSize=13;shadow=1;" edge="1" parent="1" source="21" target="22">
                    <mxGeometry relative="1" as="geometry"/>
                </mxCell>
                <mxCell id="21" value="" style="rounded=0;whiteSpace=wrap;html=1;fontSize=21;verticalAlign=bottom;fillColor=#60a917;strokeColor=#2D7600;fontColor=#ffffff;shadow=1;" vertex="1" parent="1">
                    <mxGeometry x="138.75" y="160" width="30" height="30" as="geometry"/>
                </mxCell>
                <mxCell id="22" value="&lt;span style=&quot;color: rgb(32, 33, 34); font-family: sans-serif; font-size: 16.8px;&quot;&gt;✖&lt;/span&gt;" style="rounded=0;whiteSpace=wrap;html=1;fontSize=21;verticalAlign=bottom;fillColor=#60a917;strokeColor=#2D7600;fontColor=#ffffff;shadow=1;" vertex="1" parent="1">
                    <mxGeometry x="138.75" y="230" width="30" height="30" as="geometry"/>
                </mxCell>
                <mxCell id="23" style="edgeStyle=none;html=1;exitX=0.5;exitY=1;exitDx=0;exitDy=0;entryX=0.5;entryY=0;entryDx=0;entryDy=0;fontSize=30;endArrow=open;endFill=0;endSize=13;shadow=1;" edge="1" parent="1" source="24" target="25">
                    <mxGeometry relative="1" as="geometry"/>
                </mxCell>
                <mxCell id="24" value="p1" style="rounded=0;whiteSpace=wrap;html=1;fontSize=21;verticalAlign=bottom;fillColor=#0050ef;strokeColor=#001DBC;fontColor=#ffffff;shadow=1;" vertex="1" parent="1">
                    <mxGeometry x="178.75" y="160" width="30" height="30" as="geometry"/>
                </mxCell>
                <mxCell id="74" style="edgeStyle=orthogonalEdgeStyle;html=1;exitX=0.5;exitY=1;exitDx=0;exitDy=0;entryX=0;entryY=0.5;entryDx=0;entryDy=0;endArrow=open;endFill=0;endSize=15;shadow=1;" edge="1" parent="1" source="25" target="39">
                    <mxGeometry relative="1" as="geometry">
                        <Array as="points">
                            <mxPoint x="194" y="300"/>
                            <mxPoint x="370" y="300"/>
                            <mxPoint x="370" y="215"/>
                        </Array>
                    </mxGeometry>
                </mxCell>
                <mxCell id="25" value="f1" style="rounded=0;whiteSpace=wrap;html=1;fontSize=21;verticalAlign=bottom;fillColor=#0050ef;strokeColor=#001DBC;fontColor=#ffffff;shadow=1;" vertex="1" parent="1">
                    <mxGeometry x="178.75" y="230" width="30" height="30" as="geometry"/>
                </mxCell>
                <mxCell id="26" style="edgeStyle=none;html=1;exitX=0.5;exitY=1;exitDx=0;exitDy=0;entryX=0.5;entryY=0;entryDx=0;entryDy=0;fontSize=30;endArrow=open;endFill=0;endSize=13;shadow=1;" edge="1" parent="1" source="27">
                    <mxGeometry relative="1" as="geometry">
                        <mxPoint x="233.7500000000001" y="230" as="targetPoint"/>
                    </mxGeometry>
                </mxCell>
                <mxCell id="27" value="" style="rounded=0;whiteSpace=wrap;html=1;fontSize=21;verticalAlign=bottom;fillColor=#60a917;strokeColor=#2D7600;fontColor=#ffffff;shadow=1;" vertex="1" parent="1">
                    <mxGeometry x="218.75" y="160" width="30" height="30" as="geometry"/>
                </mxCell>
                <mxCell id="28" style="edgeStyle=none;html=1;exitX=0.5;exitY=1;exitDx=0;exitDy=0;entryX=0.5;entryY=0;entryDx=0;entryDy=0;fontSize=30;endArrow=open;endFill=0;endSize=13;shadow=1;" edge="1" parent="1" source="29" target="30">
                    <mxGeometry relative="1" as="geometry"/>
                </mxCell>
                <mxCell id="29" value="" style="rounded=0;whiteSpace=wrap;html=1;fontSize=21;verticalAlign=bottom;fillColor=#1ba1e2;strokeColor=#006EAF;fontColor=#ffffff;shadow=1;" vertex="1" parent="1">
                    <mxGeometry x="260.6200000000001" y="160" width="30" height="30" as="geometry"/>
                </mxCell>
                <mxCell id="30" value="" style="rounded=0;whiteSpace=wrap;html=1;fontSize=21;verticalAlign=bottom;fillColor=#1ba1e2;strokeColor=#006EAF;fontColor=#ffffff;shadow=1;" vertex="1" parent="1">
                    <mxGeometry x="260.6200000000001" y="230" width="30" height="30" as="geometry"/>
                </mxCell>
                <mxCell id="31" value="..." style="text;html=1;strokeColor=none;fillColor=none;align=center;verticalAlign=bottom;whiteSpace=wrap;rounded=0;fontSize=40;fontStyle=1;shadow=1;" vertex="1" parent="1">
                    <mxGeometry x="290.6200000000001" y="195" width="60" height="30" as="geometry"/>
                </mxCell>
                <mxCell id="32" value="&lt;span style=&quot;color: rgb(32, 33, 34); font-family: sans-serif; font-size: 16.8px;&quot;&gt;✖&lt;/span&gt;" style="rounded=0;whiteSpace=wrap;html=1;fontSize=21;verticalAlign=bottom;fillColor=#60a917;strokeColor=#2D7600;fontColor=#ffffff;shadow=1;" vertex="1" parent="1">
                    <mxGeometry x="218.75" y="230" width="30" height="30" as="geometry"/>
                </mxCell>
                <mxCell id="33" value="..." style="text;html=1;strokeColor=none;fillColor=none;align=center;verticalAlign=bottom;whiteSpace=wrap;rounded=0;fontSize=40;fontStyle=1;shadow=1;" vertex="1" parent="1">
                    <mxGeometry x="10" y="195" width="60" height="30" as="geometry"/>
                </mxCell>
                <mxCell id="36" value="" style="rounded=0;whiteSpace=wrap;html=1;fillColor=#1ba1e2;strokeColor=#006EAF;fontColor=#ffffff;shadow=1;" vertex="1" parent="1">
                    <mxGeometry x="400" y="110" width="145" height="30" as="geometry"/>
                </mxCell>
                <mxCell id="37" value="" style="rounded=0;whiteSpace=wrap;html=1;fillColor=#60a917;strokeColor=#2D7600;fontColor=#ffffff;shadow=1;" vertex="1" parent="1">
                    <mxGeometry x="400" y="140" width="145" height="30" as="geometry"/>
                </mxCell>
                <mxCell id="38" value="" style="rounded=0;whiteSpace=wrap;html=1;fillColor=#60a917;strokeColor=#2D7600;fontColor=#ffffff;shadow=1;" vertex="1" parent="1">
                    <mxGeometry x="400" y="170" width="145" height="30" as="geometry"/>
                </mxCell>
                <mxCell id="39" value="f1" style="rounded=0;whiteSpace=wrap;html=1;fillColor=#0050ef;strokeColor=#001DBC;fontColor=#ffffff;fontSize=21;shadow=1;" vertex="1" parent="1">
                    <mxGeometry x="400" y="200" width="145" height="30" as="geometry"/>
                </mxCell>
                <mxCell id="40" value="" style="rounded=0;whiteSpace=wrap;html=1;fillColor=#60a917;strokeColor=#2D7600;fontColor=#ffffff;shadow=1;" vertex="1" parent="1">
                    <mxGeometry x="400" y="230" width="145" height="30" as="geometry"/>
                </mxCell>
                <mxCell id="41" value="" style="rounded=0;whiteSpace=wrap;html=1;fillColor=#1ba1e2;strokeColor=#006EAF;fontColor=#ffffff;shadow=1;" vertex="1" parent="1">
                    <mxGeometry x="400" y="260" width="145" height="30" as="geometry"/>
                </mxCell>
                <mxCell id="42" value="" style="rounded=0;whiteSpace=wrap;html=1;fillColor=#0050ef;strokeColor=#001DBC;fontColor=#ffffff;shadow=1;" vertex="1" parent="1">
                    <mxGeometry x="610" y="120" width="380" height="180" as="geometry"/>
                </mxCell>
                <mxCell id="43" value="" style="rounded=1;whiteSpace=wrap;html=1;fontSize=29;verticalAlign=top;arcSize=6;shadow=1;" vertex="1" parent="1">
                    <mxGeometry x="630" y="140" width="340.62" height="140" as="geometry"/>
                </mxCell>
                <mxCell id="44" style="edgeStyle=none;html=1;exitX=0.5;exitY=1;exitDx=0;exitDy=0;entryX=0.5;entryY=0;entryDx=0;entryDy=0;fontSize=30;endArrow=open;endFill=0;endSize=13;shadow=1;" edge="1" parent="1" source="45" target="46">
                    <mxGeometry relative="1" as="geometry"/>
                </mxCell>
                <mxCell id="45" value="" style="rounded=0;whiteSpace=wrap;html=1;fontSize=21;verticalAlign=bottom;fillColor=#1ba1e2;strokeColor=#006EAF;fontColor=#ffffff;shadow=1;" vertex="1" parent="1">
                    <mxGeometry x="678.75" y="160" width="30" height="30" as="geometry"/>
                </mxCell>
                <mxCell id="46" value="" style="rounded=0;whiteSpace=wrap;html=1;fontSize=21;verticalAlign=bottom;fillColor=#1ba1e2;strokeColor=#006EAF;fontColor=#ffffff;shadow=1;" vertex="1" parent="1">
                    <mxGeometry x="678.75" y="230" width="30" height="30" as="geometry"/>
                </mxCell>
                <mxCell id="47" style="edgeStyle=none;html=1;exitX=0.5;exitY=1;exitDx=0;exitDy=0;entryX=0.5;entryY=0;entryDx=0;entryDy=0;fontSize=30;endArrow=open;endFill=0;endSize=13;shadow=1;" edge="1" parent="1" source="48" target="49">
                    <mxGeometry relative="1" as="geometry"/>
                </mxCell>
                <mxCell id="48" value="p2" style="rounded=0;whiteSpace=wrap;html=1;fontSize=21;verticalAlign=bottom;fillColor=#6a00ff;strokeColor=#3700CC;fontColor=#ffffff;shadow=1;" vertex="1" parent="1">
                    <mxGeometry x="718.75" y="160" width="30" height="30" as="geometry"/>
                </mxCell>
                <mxCell id="89" style="edgeStyle=orthogonalEdgeStyle;html=1;exitX=0.5;exitY=1;exitDx=0;exitDy=0;entryX=0;entryY=0.5;entryDx=0;entryDy=0;fontSize=29;endArrow=open;endFill=0;endSize=15;shadow=1;" edge="1" parent="1" source="49" target="68">
                    <mxGeometry relative="1" as="geometry">
                        <Array as="points">
                            <mxPoint x="734" y="310"/>
                            <mxPoint x="1010" y="310"/>
                            <mxPoint x="1010" y="155"/>
                        </Array>
                    </mxGeometry>
                </mxCell>
                <mxCell id="49" value="f2" style="rounded=0;whiteSpace=wrap;html=1;fontSize=21;verticalAlign=bottom;fillColor=#6a00ff;strokeColor=#3700CC;fontColor=#ffffff;shadow=1;" vertex="1" parent="1">
                    <mxGeometry x="718.75" y="230" width="30" height="30" as="geometry"/>
                </mxCell>
                <mxCell id="50" style="edgeStyle=none;html=1;exitX=0.5;exitY=1;exitDx=0;exitDy=0;entryX=0.5;entryY=0;entryDx=0;entryDy=0;fontSize=30;endArrow=open;endFill=0;endSize=13;shadow=1;" edge="1" parent="1" source="51" target="52">
                    <mxGeometry relative="1" as="geometry"/>
                </mxCell>
                <mxCell id="51" value="" style="rounded=0;whiteSpace=wrap;html=1;fontSize=21;verticalAlign=bottom;fillColor=#60a917;strokeColor=#2D7600;fontColor=#ffffff;shadow=1;" vertex="1" parent="1">
                    <mxGeometry x="758.75" y="160" width="30" height="30" as="geometry"/>
                </mxCell>
                <mxCell id="52" value="&lt;span style=&quot;color: rgb(32, 33, 34); font-family: sans-serif; font-size: 16.8px;&quot;&gt;✖&lt;/span&gt;" style="rounded=0;whiteSpace=wrap;html=1;fontSize=21;verticalAlign=bottom;fillColor=#60a917;strokeColor=#2D7600;fontColor=#ffffff;shadow=1;" vertex="1" parent="1">
                    <mxGeometry x="758.75" y="230" width="30" height="30" as="geometry"/>
                </mxCell>
                <mxCell id="53" style="edgeStyle=none;html=1;exitX=0.5;exitY=1;exitDx=0;exitDy=0;entryX=0.5;entryY=0;entryDx=0;entryDy=0;fontSize=30;endArrow=open;endFill=0;endSize=13;shadow=1;" edge="1" parent="1" source="54" target="55">
                    <mxGeometry relative="1" as="geometry"/>
                </mxCell>
                <mxCell id="54" value="" style="rounded=0;whiteSpace=wrap;html=1;fontSize=21;verticalAlign=bottom;fillColor=#1ba1e2;strokeColor=#006EAF;fontColor=#ffffff;shadow=1;" vertex="1" parent="1">
                    <mxGeometry x="798.75" y="160" width="30" height="30" as="geometry"/>
                </mxCell>
                <mxCell id="55" value="" style="rounded=0;whiteSpace=wrap;html=1;fontSize=21;verticalAlign=bottom;fillColor=#1ba1e2;strokeColor=#006EAF;fontColor=#ffffff;shadow=1;" vertex="1" parent="1">
                    <mxGeometry x="798.75" y="230" width="30" height="30" as="geometry"/>
                </mxCell>
                <mxCell id="56" style="edgeStyle=none;html=1;exitX=0.5;exitY=1;exitDx=0;exitDy=0;entryX=0.5;entryY=0;entryDx=0;entryDy=0;fontSize=30;endArrow=open;endFill=0;endSize=13;shadow=1;" edge="1" parent="1" source="57">
                    <mxGeometry relative="1" as="geometry">
                        <mxPoint x="853.75" y="230" as="targetPoint"/>
                    </mxGeometry>
                </mxCell>
                <mxCell id="57" value="" style="rounded=0;whiteSpace=wrap;html=1;fontSize=21;verticalAlign=bottom;fillColor=#60a917;strokeColor=#2D7600;fontColor=#ffffff;shadow=1;" vertex="1" parent="1">
                    <mxGeometry x="838.75" y="160" width="30" height="30" as="geometry"/>
                </mxCell>
                <mxCell id="61" value="..." style="text;html=1;strokeColor=none;fillColor=none;align=center;verticalAlign=bottom;whiteSpace=wrap;rounded=0;fontSize=40;fontStyle=1;shadow=1;" vertex="1" parent="1">
                    <mxGeometry x="910.6200000000001" y="195" width="60" height="30" as="geometry"/>
                </mxCell>
                <mxCell id="62" value="&lt;span style=&quot;color: rgb(32, 33, 34); font-family: sans-serif; font-size: 16.8px;&quot;&gt;✖&lt;/span&gt;" style="rounded=0;whiteSpace=wrap;html=1;fontSize=21;verticalAlign=bottom;fillColor=#60a917;strokeColor=#2D7600;fontColor=#ffffff;shadow=1;" vertex="1" parent="1">
                    <mxGeometry x="838.75" y="230" width="30" height="30" as="geometry"/>
                </mxCell>
                <mxCell id="63" value="..." style="text;html=1;strokeColor=none;fillColor=none;align=center;verticalAlign=bottom;whiteSpace=wrap;rounded=0;fontSize=40;fontStyle=1;shadow=1;" vertex="1" parent="1">
                    <mxGeometry x="630" y="195" width="60" height="30" as="geometry"/>
                </mxCell>
                <mxCell id="64" value="" style="endArrow=none;html=1;exitX=1;exitY=0;exitDx=0;exitDy=0;entryX=0;entryY=1;entryDx=0;entryDy=0;shadow=1;" edge="1" parent="1" source="40" target="42">
                    <mxGeometry width="50" height="50" relative="1" as="geometry">
                        <mxPoint x="610" y="390" as="sourcePoint"/>
                        <mxPoint x="660" y="340" as="targetPoint"/>
                    </mxGeometry>
                </mxCell>
                <mxCell id="65" value="" style="endArrow=none;html=1;exitX=1;exitY=0;exitDx=0;exitDy=0;entryX=0;entryY=0;entryDx=0;entryDy=0;shadow=1;" edge="1" parent="1" source="39" target="42">
                    <mxGeometry width="50" height="50" relative="1" as="geometry">
                        <mxPoint x="555" y="240" as="sourcePoint"/>
                        <mxPoint x="620" y="290" as="targetPoint"/>
                    </mxGeometry>
                </mxCell>
                <mxCell id="67" value="" style="rounded=0;whiteSpace=wrap;html=1;fillColor=#1ba1e2;strokeColor=#006EAF;fontColor=#ffffff;shadow=1;" vertex="1" parent="1">
                    <mxGeometry x="1040" y="110" width="145" height="30" as="geometry"/>
                </mxCell>
                <mxCell id="68" value="f2" style="rounded=0;whiteSpace=wrap;html=1;fillColor=#6a00ff;strokeColor=#3700CC;fontColor=#ffffff;fontSize=21;shadow=1;" vertex="1" parent="1">
                    <mxGeometry x="1040" y="140" width="145" height="30" as="geometry"/>
                </mxCell>
                <mxCell id="69" value="" style="rounded=0;whiteSpace=wrap;html=1;fillColor=#60a917;strokeColor=#2D7600;fontColor=#ffffff;shadow=1;" vertex="1" parent="1">
                    <mxGeometry x="1040" y="170" width="145" height="30" as="geometry"/>
                </mxCell>
                <mxCell id="70" value="" style="rounded=0;whiteSpace=wrap;html=1;fillColor=#1ba1e2;strokeColor=#006EAF;fontColor=#ffffff;shadow=1;" vertex="1" parent="1">
                    <mxGeometry x="1040" y="200" width="145" height="30" as="geometry"/>
                </mxCell>
                <mxCell id="71" value="" style="rounded=0;whiteSpace=wrap;html=1;fillColor=#60a917;strokeColor=#2D7600;fontColor=#ffffff;shadow=1;" vertex="1" parent="1">
                    <mxGeometry x="1040" y="230" width="145" height="30" as="geometry"/>
                </mxCell>
                <mxCell id="72" value="" style="rounded=0;whiteSpace=wrap;html=1;fillColor=#60a917;strokeColor=#2D7600;fontColor=#ffffff;shadow=1;" vertex="1" parent="1">
                    <mxGeometry x="1040" y="260" width="145" height="30" as="geometry"/>
                </mxCell>
                <mxCell id="76" value="..." style="text;html=1;strokeColor=none;fillColor=none;align=center;verticalAlign=bottom;whiteSpace=wrap;rounded=0;fontSize=40;fontStyle=1;shadow=1;" vertex="1" parent="1">
                    <mxGeometry x="442.5000000000001" y="80" width="60" height="30" as="geometry"/>
                </mxCell>
                <mxCell id="77" value="..." style="text;html=1;strokeColor=none;fillColor=none;align=center;verticalAlign=bottom;whiteSpace=wrap;rounded=0;fontSize=40;fontStyle=1;shadow=1;" vertex="1" parent="1">
                    <mxGeometry x="442.5000000000001" y="290" width="60" height="30" as="geometry"/>
                </mxCell>
                <mxCell id="78" value="..." style="text;html=1;strokeColor=none;fillColor=none;align=center;verticalAlign=bottom;whiteSpace=wrap;rounded=0;fontSize=40;fontStyle=1;shadow=1;" vertex="1" parent="1">
                    <mxGeometry x="1082.5" y="80" width="60" height="30" as="geometry"/>
                </mxCell>
                <mxCell id="79" value="..." style="text;html=1;strokeColor=none;fillColor=none;align=center;verticalAlign=bottom;whiteSpace=wrap;rounded=0;fontSize=40;fontStyle=1;shadow=1;" vertex="1" parent="1">
                    <mxGeometry x="1082.5" y="290" width="60" height="30" as="geometry"/>
                </mxCell>
                <mxCell id="80" style="edgeStyle=none;html=1;exitX=0.5;exitY=1;exitDx=0;exitDy=0;entryX=0.5;entryY=0;entryDx=0;entryDy=0;fontSize=30;endArrow=open;endFill=0;endSize=13;shadow=1;" edge="1" parent="1" source="81" target="82">
                    <mxGeometry relative="1" as="geometry"/>
                </mxCell>
                <mxCell id="81" value="" style="rounded=0;whiteSpace=wrap;html=1;fontSize=21;verticalAlign=bottom;fillColor=#60a917;strokeColor=#2D7600;fontColor=#ffffff;shadow=1;" vertex="1" parent="1">
                    <mxGeometry x="100" y="160" width="30" height="30" as="geometry"/>
                </mxCell>
                <mxCell id="82" value="&lt;span style=&quot;color: rgb(32, 33, 34); font-family: sans-serif; font-size: 16.8px;&quot;&gt;✖&lt;/span&gt;" style="rounded=0;whiteSpace=wrap;html=1;fontSize=21;verticalAlign=bottom;fillColor=#60a917;strokeColor=#2D7600;fontColor=#ffffff;shadow=1;" vertex="1" parent="1">
                    <mxGeometry x="100" y="230" width="30" height="30" as="geometry"/>
                </mxCell>
                <mxCell id="86" style="edgeStyle=none;html=1;exitX=0.5;exitY=1;exitDx=0;exitDy=0;entryX=0.5;entryY=0;entryDx=0;entryDy=0;fontSize=30;endArrow=open;endFill=0;endSize=13;shadow=1;" edge="1" parent="1" source="87">
                    <mxGeometry relative="1" as="geometry">
                        <mxPoint x="895" y="230" as="targetPoint"/>
                    </mxGeometry>
                </mxCell>
                <mxCell id="87" value="" style="rounded=0;whiteSpace=wrap;html=1;fontSize=21;verticalAlign=bottom;fillColor=#60a917;strokeColor=#2D7600;fontColor=#ffffff;shadow=1;" vertex="1" parent="1">
                    <mxGeometry x="880" y="160" width="30" height="30" as="geometry"/>
                </mxCell>
                <mxCell id="88" value="&lt;span style=&quot;color: rgb(32, 33, 34); font-family: sans-serif; font-size: 16.8px;&quot;&gt;✖&lt;/span&gt;" style="rounded=0;whiteSpace=wrap;html=1;fontSize=21;verticalAlign=bottom;fillColor=#60a917;strokeColor=#2D7600;fontColor=#ffffff;shadow=1;" vertex="1" parent="1">
                    <mxGeometry x="880" y="230" width="30" height="30" as="geometry"/>
                </mxCell>
                <mxCell id="90" value="Outer Page Table" style="text;html=1;strokeColor=none;fillColor=none;align=center;verticalAlign=middle;whiteSpace=wrap;rounded=0;fontSize=29;shadow=1;" vertex="1" parent="1">
                    <mxGeometry x="55.31" y="330" width="250" height="20" as="geometry"/>
                </mxCell>
                <mxCell id="91" value="Inner Page Table" style="text;html=1;strokeColor=none;fillColor=none;align=center;verticalAlign=middle;whiteSpace=wrap;rounded=0;fontSize=29;shadow=1;" vertex="1" parent="1">
                    <mxGeometry x="688.75" y="330" width="250" height="20" as="geometry"/>
                </mxCell>
                <mxCell id="92" value="frame in physical memory" style="text;html=1;strokeColor=none;fillColor=none;align=center;verticalAlign=middle;whiteSpace=wrap;rounded=0;fontSize=29;shadow=1;" vertex="1" parent="1">
                    <mxGeometry x="347.5" y="330" width="250" height="60" as="geometry"/>
                </mxCell>
                <mxCell id="93" value="frame in physical memory" style="text;html=1;strokeColor=none;fillColor=none;align=center;verticalAlign=middle;whiteSpace=wrap;rounded=0;fontSize=29;shadow=1;" vertex="1" parent="1">
                    <mxGeometry x="987.5" y="330" width="250" height="50" as="geometry"/>
                </mxCell>
                <mxCell id="97" style="edgeStyle=orthogonalEdgeStyle;html=1;exitX=0.5;exitY=1;exitDx=0;exitDy=0;entryX=0.5;entryY=0;entryDx=0;entryDy=0;fontSize=21;endArrow=open;endFill=0;endSize=15;shadow=1;" edge="1" parent="1" source="94" target="24">
                    <mxGeometry relative="1" as="geometry">
                        <Array as="points">
                            <mxPoint x="315" y="70"/>
                            <mxPoint x="194" y="70"/>
                        </Array>
                    </mxGeometry>
                </mxCell>
                <mxCell id="94" value="p1" style="rounded=0;whiteSpace=wrap;html=1;fontSize=21;verticalAlign=top;fillColor=#0050ef;strokeColor=#001DBC;fontColor=#ffffff;shadow=1;" vertex="1" parent="1">
                    <mxGeometry x="259.75" y="10" width="109" height="40" as="geometry"/>
                </mxCell>
                <mxCell id="98" style="edgeStyle=orthogonalEdgeStyle;html=1;exitX=0.5;exitY=1;exitDx=0;exitDy=0;entryX=0.5;entryY=0;entryDx=0;entryDy=0;fontSize=21;endArrow=open;endFill=0;endSize=15;shadow=1;" edge="1" parent="1" source="95" target="48">
                    <mxGeometry relative="1" as="geometry">
                        <Array as="points">
                            <mxPoint x="424" y="70"/>
                            <mxPoint x="734" y="70"/>
                        </Array>
                    </mxGeometry>
                </mxCell>
                <mxCell id="95" value="p2" style="rounded=0;whiteSpace=wrap;html=1;fontSize=21;verticalAlign=top;fillColor=#6a00ff;strokeColor=#3700CC;fontColor=#ffffff;shadow=1;" vertex="1" parent="1">
                    <mxGeometry x="368.75" y="10" width="109" height="40" as="geometry"/>
                </mxCell>
                <mxCell id="105" style="edgeStyle=orthogonalEdgeStyle;html=1;exitX=1;exitY=0.5;exitDx=0;exitDy=0;entryX=1;entryY=0.5;entryDx=0;entryDy=0;fontSize=21;endArrow=open;endFill=0;endSize=15;shadow=1;" edge="1" parent="1" source="96" target="102">
                    <mxGeometry relative="1" as="geometry">
                        <Array as="points">
                            <mxPoint x="1420" y="30"/>
                            <mxPoint x="1420" y="175"/>
                        </Array>
                    </mxGeometry>
                </mxCell>
                <mxCell id="96" value="d" style="rounded=0;whiteSpace=wrap;html=1;fontSize=21;verticalAlign=top;fillColor=#e51400;strokeColor=#B20000;fontColor=#ffffff;shadow=1;" vertex="1" parent="1">
                    <mxGeometry x="477.75" y="10" width="241" height="40" as="geometry"/>
                </mxCell>
                <mxCell id="99" value="" style="rounded=0;whiteSpace=wrap;html=1;fillColor=#6a00ff;strokeColor=#3700CC;fontColor=#ffffff;shadow=1;" vertex="1" parent="1">
                    <mxGeometry x="1270" y="120" width="120" height="180" as="geometry"/>
                </mxCell>
                <mxCell id="100" value="" style="endArrow=none;html=1;exitX=1;exitY=0;exitDx=0;exitDy=0;entryX=0;entryY=1;entryDx=0;entryDy=0;shadow=1;" edge="1" parent="1" source="69" target="99">
                    <mxGeometry width="50" height="50" relative="1" as="geometry">
                        <mxPoint x="1205" y="230" as="sourcePoint"/>
                        <mxPoint x="1270" y="300" as="targetPoint"/>
                    </mxGeometry>
                </mxCell>
                <mxCell id="101" value="" style="endArrow=none;html=1;exitX=1;exitY=1;exitDx=0;exitDy=0;entryX=0;entryY=0;entryDx=0;entryDy=0;shadow=1;" edge="1" parent="1" source="67" target="99">
                    <mxGeometry width="50" height="50" relative="1" as="geometry">
                        <mxPoint x="1195" y="180" as="sourcePoint"/>
                        <mxPoint x="1280" y="310" as="targetPoint"/>
                    </mxGeometry>
                </mxCell>
                <mxCell id="102" value="" style="rounded=0;whiteSpace=wrap;html=1;fontSize=21;verticalAlign=top;fillColor=#e51400;strokeColor=#B20000;fontColor=#ffffff;shadow=1;" vertex="1" parent="1">
                    <mxGeometry x="1270" y="170" width="120" height="10" as="geometry"/>
                </mxCell>
                <mxCell id="103" value="" style="endArrow=none;html=1;fontSize=21;endSize=15;entryX=1;entryY=0.25;entryDx=0;entryDy=0;exitX=0;exitY=0.25;exitDx=0;exitDy=0;fillColor=#e51400;strokeColor=#B20000;shadow=1;" edge="1" parent="1" source="68" target="68">
                    <mxGeometry width="50" height="50" relative="1" as="geometry">
                        <mxPoint x="1110" y="150" as="sourcePoint"/>
                        <mxPoint x="1160" y="100" as="targetPoint"/>
                    </mxGeometry>
                </mxCell>
                <mxCell id="106" value="logical Address:" style="text;html=1;strokeColor=none;fillColor=none;align=center;verticalAlign=middle;whiteSpace=wrap;rounded=0;fontSize=29;shadow=1;" vertex="1" parent="1">
                    <mxGeometry x="37.75" y="20" width="211" height="20" as="geometry"/>
                </mxCell>
            </root>
        </mxGraphModel>
    </diagram>
</mxfile>